<svg width="1440" height="520" viewBox="0 0 1440 520" fill="none" xmlns="http://www.w3.org/2000/svg" role="img" aria-label="Exam Rescue document banner">
  <rect width="1440" height="520" fill="#f8fafc"/>
  <rect x="164" y="76" width="1112" height="368" rx="34" fill="white" stroke="#e2e8f0"/>
  <rect x="216" y="128" width="360" height="42" rx="12" fill="#dbeafe"/>
  <rect x="216" y="202" width="504" height="20" rx="10" fill="#cbd5e1"/>
  <rect x="216" y="242" width="430" height="20" rx="10" fill="#e2e8f0"/>
  <rect x="216" y="282" width="482" height="20" rx="10" fill="#e2e8f0"/>
  <rect x="216" y="346" width="182" height="50" rx="16" fill="#2563eb"/>
  <rect x="802" y="126" width="326" height="238" rx="24" fill="#0f172a"/>
  <rect x="834" y="158" width="132" height="20" rx="10" fill="#60a5fa"/>
  <rect x="834" y="204" width="236" height="16" rx="8" fill="#475569"/>
  <rect x="834" y="238" width="198" height="16" rx="8" fill="#475569"/>
  <rect x="834" y="272" width="224" height="16" rx="8" fill="#475569"/>
  <circle cx="1110" cy="380" r="58" fill="#22c55e"/>
  <path d="M1085 380L1102 397L1137 361" stroke="white" stroke-width="12" stroke-linecap="round" stroke-linejoin="round"/>
</svg>
